<svg width="68" height="78" viewBox="0 0 68 78" fill="none" xmlns="http://www.w3.org/2000/svg">
<g filter="url(#filter0_d_19_146)">
<path d="M53.4369 61.8799L41.1673 39.7461L35.5088 43.2675L47.5153 64.9381L51.7663 67.0766L52.804 66.5L53.4369 61.8799Z" fill="#C4C4C4"/>
<path d="M27.6922 10.6379L41.1252 29.9662L26.7659 38.1249L17.0385 16.6912L27.6922 10.6379Z" fill="#B34BD8"/>
<path d="M26.4711 50.5472L51.9473 36.072C49.6102 29.8019 44.0676 29.2134 41.5884 29.703L26.7658 38.1249C22.0496 42.7653 24.6042 48.3399 26.4711 50.5472Z" fill="#375899"/>
<path d="M11.1011 12.7118L27.3132 3.50034C30.1598 6.78488 28.9941 9.69395 28.0554 10.7379L17.0385 16.6911C13.3624 17.5544 11.5485 14.3979 11.1011 12.7118Z" fill="#375899"/>
</g>
<defs>
<filter id="filter0_d_19_146" x="7.10107" y="3.50034" width="50.3359" height="73.5763" filterUnits="userSpaceOnUse" color-interpolation-filters="sRGB">
<feFlood flood-opacity="0" result="BackgroundImageFix"/>
<feColorMatrix in="SourceAlpha" type="matrix" values="0 0 0 0 0 0 0 0 0 0 0 0 0 0 0 0 0 0 127 0" result="hardAlpha"/>
<feOffset dy="6"/>
<feGaussianBlur stdDeviation="2"/>
<feComposite in2="hardAlpha" operator="out"/>
<feColorMatrix type="matrix" values="0 0 0 0 0 0 0 0 0 0 0 0 0 0 0 0 0 0 0.25 0"/>
<feBlend mode="normal" in2="BackgroundImageFix" result="effect1_dropShadow_19_146"/>
<feBlend mode="normal" in="SourceGraphic" in2="effect1_dropShadow_19_146" result="shape"/>
</filter>
</defs>
</svg>
