<svg width="81" height="83" viewBox="0 0 81 83" fill="none" xmlns="http://www.w3.org/2000/svg">
<g filter="url(#filter0_d_19_136)">
<path d="M4.99999 65.5L28.5 41.5L34.5 48L11.5 71.5L5.22946 72.7541L4.11948 72.1038L4.99999 65.5Z" fill="#C4C4C4"/>
<path d="M56 9L32 29L47.5 44.5L67.5 20.5L56 9Z" fill="#D31AD7"/>
<path d="M43.5 60.5L16 33C21.2 25.8 28.5 27 31.5 28.5L47.5 44.5C51.9 52.1 46.6667 58.3333 43.5 60.5Z" fill="#FB22FF"/>
<path d="M76.5 17.5L59 0C54.2 3.2 54.6667 7.33333 55.5 9L67.5 20.5C71.9 22.9 75.3334 19.5 76.5 17.5Z" fill="#FB22FF"/>
</g>
<defs>
<filter id="filter0_d_19_136" x="0.119476" y="0" width="80.3805" height="82.7541" filterUnits="userSpaceOnUse" color-interpolation-filters="sRGB">
<feFlood flood-opacity="0" result="BackgroundImageFix"/>
<feColorMatrix in="SourceAlpha" type="matrix" values="0 0 0 0 0 0 0 0 0 0 0 0 0 0 0 0 0 0 127 0" result="hardAlpha"/>
<feOffset dy="6"/>
<feGaussianBlur stdDeviation="2"/>
<feComposite in2="hardAlpha" operator="out"/>
<feColorMatrix type="matrix" values="0 0 0 0 0 0 0 0 0 0 0 0 0 0 0 0 0 0 0.25 0"/>
<feBlend mode="normal" in2="BackgroundImageFix" result="effect1_dropShadow_19_136"/>
<feBlend mode="normal" in="SourceGraphic" in2="effect1_dropShadow_19_136" result="shape"/>
</filter>
</defs>
</svg>
