<svg width="72" height="41" viewBox="0 0 72 41" fill="none" xmlns="http://www.w3.org/2000/svg">
<path d="M0.0790327 20.8896C-0.136159 20.381 0.101724 19.7942 0.61036 19.579C1.119 19.3638 1.70578 19.6017 1.92097 20.1104L0.0790327 20.8896ZM67.9267 20.8757C67.7192 21.3875 67.1361 21.6342 66.6243 21.4267L58.2836 18.0454C57.7718 17.8379 57.5251 17.2548 57.7326 16.7429C57.9401 16.2311 58.5232 15.9844 59.0351 16.1919L66.449 19.1976L69.4546 11.7836C69.6621 11.2718 70.2452 11.0251 70.7571 11.2326C71.2689 11.4401 71.5156 12.0232 71.3081 12.5351L67.9267 20.8757ZM1.92097 20.1104C4.65389 26.57 7.35727 31.34 10.0134 34.4791C12.6777 37.6278 15.1744 39 17.5 39C19.8256 39 22.3223 37.6278 24.9866 34.4791C27.6427 31.34 30.3461 26.57 33.079 20.1104L34.921 20.8896C32.1539 27.43 29.3573 32.41 26.5134 35.7709C23.6777 39.1222 20.6744 41 17.5 41C14.3256 41 11.3223 39.1222 8.48661 35.7709C5.64273 32.41 2.84611 27.43 0.0790327 20.8896L1.92097 20.1104ZM33.079 20.1104C35.8461 13.57 38.6427 8.59001 41.4866 5.22906C44.3223 1.87784 47.3256 -4.88758e-07 50.5 -4.88758e-07C53.6744 -4.88758e-07 56.6777 1.87784 59.5134 5.22906C62.3573 8.59001 65.1539 13.57 67.921 20.1104L66.079 20.8896C63.3461 14.43 60.6427 9.65999 57.9866 6.52094C55.3223 3.37216 52.8256 2 50.5 2C48.1744 2 45.6777 3.37216 43.0134 6.52094C40.3573 9.65999 37.6539 14.43 34.921 20.8896L33.079 20.1104Z" fill="white"/>
</svg>
