<svg width="144" height="81" viewBox="0 0 144 81" fill="none" xmlns="http://www.w3.org/2000/svg">
<ellipse cx="26" cy="51.5" rx="25" ry="25.5" fill="#686DE0"/>
<path d="M49.6572 46.2672C49.8083 47.1901 49.9109 48.1298 49.9621 49.0834L49.7124 49.0968C49.7374 49.5613 49.75 50.0291 49.75 50.5C49.75 50.9709 49.7374 51.4387 49.7124 51.9032L49.9621 51.9166C49.9109 52.8702 49.8083 53.8099 49.6572 54.7328L49.4104 54.6924C49.2579 55.6236 49.0555 56.5374 48.806 57.4311L49.0468 57.4983C48.7911 58.4141 48.4865 59.3088 48.136 60.1794L47.9041 60.086C47.5531 60.958 47.1556 61.8055 46.7148 62.6254L46.935 62.7438C46.4861 63.5788 45.9926 64.3854 45.4579 65.1603L45.2521 65.0183C44.7197 65.79 44.1459 66.5298 43.5341 67.2345L43.7229 67.3984C43.1029 68.1126 42.4442 68.791 41.7503 69.4302L41.5809 69.2464C40.893 69.8801 40.17 70.4749 39.4154 71.0274L39.5631 71.2291C38.802 71.7864 38.0089 72.3012 37.1872 72.7701L37.0633 72.5529C36.2534 73.015 35.4155 73.432 34.5529 73.8005L34.6511 74.0304C33.7868 74.3997 32.8979 74.7208 31.9876 74.9906L31.9165 74.7509C31.0266 75.0146 30.116 75.2287 29.1877 75.3901L29.2305 75.6364C28.3088 75.7967 27.3698 75.9054 26.4166 75.9598L26.4024 75.7102C25.9382 75.7366 25.4707 75.75 25 75.75C24.5293 75.75 24.0618 75.7366 23.5976 75.7102L23.5834 75.9598C22.6302 75.9054 21.6912 75.7967 20.7695 75.6364L20.8123 75.3901C19.884 75.2287 18.9734 75.0146 18.0835 74.7509L18.0124 74.9906C17.1021 74.7208 16.2132 74.3997 15.3489 74.0304L15.4471 73.8005C14.5845 73.432 13.7466 73.015 12.9367 72.5529L12.8128 72.7701C11.9911 72.3012 11.198 71.7864 10.4369 71.2291L10.5846 71.0274C9.82997 70.4749 9.10703 69.8801 8.41912 69.2464L8.24974 69.4302C7.55576 68.791 6.89711 68.1126 6.27713 67.3984L6.46591 67.2345C5.85412 66.5298 5.28035 65.79 4.74786 65.0183L4.5421 65.1603C4.0074 64.3854 3.51393 63.5788 3.06497 62.7438L3.28516 62.6254C2.84437 61.8055 2.4469 60.958 2.09588 60.086L1.86397 60.1794C1.51351 59.3088 1.20891 58.4141 0.95323 57.4983L1.19402 57.4311C0.944525 56.5374 0.742064 55.6236 0.589551 54.6924L0.342838 54.7328C0.191678 53.8099 0.0891155 52.8702 0.0379236 51.9166L0.287564 51.9032C0.262631 51.4387 0.25 50.9709 0.25 50.5C0.25 50.0291 0.262631 49.5613 0.287564 49.0968L0.0379235 49.0834C0.0891152 48.1298 0.191678 47.1901 0.342837 46.2672L0.58955 46.3076C0.742063 45.3764 0.944524 44.4626 1.19402 43.5689L0.953229 43.5017C1.20891 42.5859 1.51351 41.6912 1.86397 40.8206L2.09588 40.914C2.4469 40.042 2.84437 39.1945 3.28516 38.3746L3.06497 38.2562C3.51393 37.4212 4.00739 36.6146 4.5421 35.8397L4.74786 35.9817C5.28034 35.21 5.85412 34.4702 6.46591 33.7655L6.27713 33.6016C6.89711 32.8874 7.55576 32.209 8.24973 31.5698L8.41911 31.7536C9.10703 31.1199 9.82997 30.5251 10.5846 29.9726L10.4369 29.7709C11.198 29.2136 11.9911 28.6988 12.8128 28.2299L12.9367 28.4471C13.7466 27.985 14.5845 27.568 15.4471 27.1995L15.3489 26.9696C16.2132 26.6003 17.1021 26.2792 18.0124 26.0094L18.0835 26.2491C18.9734 25.9854 19.884 25.7713 20.8123 25.6099L20.7695 25.3636C21.6912 25.2033 22.6302 25.0946 23.5834 25.0402L23.5976 25.2898C24.0618 25.2634 24.5293 25.25 25 25.25C25.4707 25.25 25.9382 25.2634 26.4024 25.2898L26.4166 25.0403C27.3698 25.0946 28.3088 25.2033 29.2305 25.3636L29.1877 25.6099C30.116 25.7713 31.0266 25.9854 31.9165 26.2491L31.9876 26.0094C32.8979 26.2792 33.7868 26.6003 34.6511 26.9696L34.5529 27.1995C35.4155 27.568 36.2534 27.985 37.0633 28.4471L37.1872 28.2299C38.0089 28.6988 38.802 29.2136 39.5631 29.7709L39.4154 29.9726C40.17 30.5251 40.893 31.1199 41.5809 31.7536L41.7503 31.5698C42.4442 32.209 43.1029 32.8874 43.7229 33.6016L43.5341 33.7655C44.1459 34.4702 44.7197 35.21 45.2521 35.9817L45.4579 35.8397C45.9926 36.6146 46.4861 37.4212 46.935 38.2562L46.7148 38.3746C47.1556 39.1945 47.5531 40.042 47.9041 40.914L48.136 40.8206C48.4865 41.6912 48.7911 42.5859 49.0468 43.5017L48.806 43.5689C49.0555 44.4626 49.2579 45.3764 49.4104 46.3076L49.6572 46.2672Z" stroke="#686DE0" stroke-width="0.5" stroke-dasharray="3 3"/>
<path d="M143.657 46.2672C143.808 47.1901 143.911 48.1298 143.962 49.0834L143.712 49.0968C143.737 49.5613 143.75 50.0291 143.75 50.5C143.75 50.9709 143.737 51.4387 143.712 51.9032L143.962 51.9166C143.911 52.8702 143.808 53.8099 143.657 54.7328L143.41 54.6924C143.258 55.6236 143.055 56.5374 142.806 57.4311L143.047 57.4983C142.791 58.4141 142.486 59.3088 142.136 60.1794L141.904 60.086C141.553 60.958 141.156 61.8055 140.715 62.6254L140.935 62.7438C140.486 63.5788 139.993 64.3854 139.458 65.1603L139.252 65.0183C138.72 65.79 138.146 66.5298 137.534 67.2345L137.723 67.3984C137.103 68.1126 136.444 68.791 135.75 69.4302L135.581 69.2464C134.893 69.8801 134.17 70.4749 133.415 71.0274L133.563 71.2291C132.802 71.7864 132.009 72.3012 131.187 72.7701L131.063 72.5529C130.253 73.015 129.416 73.432 128.553 73.8005L128.651 74.0304C127.787 74.3997 126.898 74.7208 125.988 74.9906L125.917 74.7509C125.027 75.0146 124.116 75.2287 123.188 75.3901L123.231 75.6364C122.309 75.7967 121.37 75.9054 120.417 75.9598L120.402 75.7102C119.938 75.7366 119.471 75.75 119 75.75C118.529 75.75 118.062 75.7366 117.598 75.7102L117.583 75.9598C116.63 75.9054 115.691 75.7967 114.769 75.6364L114.812 75.3901C113.884 75.2287 112.973 75.0146 112.083 74.7509L112.012 74.9906C111.102 74.7208 110.213 74.3997 109.349 74.0304L109.447 73.8005C108.584 73.432 107.747 73.015 106.937 72.5529L106.813 72.7701C105.991 72.3012 105.198 71.7864 104.437 71.2291L104.585 71.0274C103.83 70.4749 103.107 69.8801 102.419 69.2464L102.25 69.4302C101.556 68.791 100.897 68.1126 100.277 67.3984L100.466 67.2345C99.8541 66.5298 99.2803 65.79 98.7479 65.0183L98.5421 65.1603C98.0074 64.3854 97.5139 63.5788 97.065 62.7438L97.2852 62.6254C96.8444 61.8055 96.4469 60.958 96.0959 60.086L95.864 60.1794C95.5135 59.3088 95.2089 58.4141 94.9532 57.4983L95.194 57.4311C94.9445 56.5374 94.7421 55.6236 94.5896 54.6924L94.3428 54.7328C94.1917 53.8099 94.0891 52.8702 94.0379 51.9166L94.2876 51.9032C94.2626 51.4387 94.25 50.9709 94.25 50.5C94.25 50.0291 94.2626 49.5613 94.2876 49.0968L94.0379 49.0834C94.0891 48.1298 94.1917 47.1901 94.3428 46.2672L94.5895 46.3076C94.7421 45.3764 94.9445 44.4626 95.194 43.5689L94.9532 43.5017C95.2089 42.5859 95.5135 41.6912 95.864 40.8206L96.0959 40.914C96.4469 40.042 96.8444 39.1945 97.2852 38.3746L97.065 38.2562C97.5139 37.4212 98.0074 36.6146 98.5421 35.8397L98.7479 35.9817C99.2803 35.21 99.8541 34.4702 100.466 33.7655L100.277 33.6016C100.897 32.8874 101.556 32.209 102.25 31.5698L102.419 31.7536C103.107 31.1199 103.83 30.5251 104.585 29.9726L104.437 29.7709C105.198 29.2136 105.991 28.6988 106.813 28.2299L106.937 28.4471C107.747 27.985 108.584 27.568 109.447 27.1995L109.349 26.9696C110.213 26.6003 111.102 26.2792 112.012 26.0094L112.083 26.2491C112.973 25.9854 113.884 25.7713 114.812 25.6099L114.769 25.3636C115.691 25.2033 116.63 25.0946 117.583 25.0402L117.598 25.2898C118.062 25.2634 118.529 25.25 119 25.25C119.471 25.25 119.938 25.2634 120.402 25.2898L120.417 25.0403C121.37 25.0946 122.309 25.2033 123.231 25.3636L123.188 25.6099C124.116 25.7713 125.027 25.9854 125.917 26.2491L125.988 26.0094C126.898 26.2792 127.787 26.6003 128.651 26.9696L128.553 27.1995C129.416 27.568 130.253 27.985 131.063 28.4471L131.187 28.2299C132.009 28.6988 132.802 29.2136 133.563 29.7709L133.415 29.9726C134.17 30.5251 134.893 31.1199 135.581 31.7536L135.75 31.5698C136.444 32.209 137.103 32.8874 137.723 33.6016L137.534 33.7655C138.146 34.4702 138.72 35.21 139.252 35.9817L139.458 35.8397C139.993 36.6146 140.486 37.4212 140.935 38.2562L140.715 38.3746C141.156 39.1945 141.553 40.042 141.904 40.914L142.136 40.8206C142.486 41.6912 142.791 42.5859 143.047 43.5017L142.806 43.5689C143.055 44.4626 143.258 45.3764 143.41 46.3076L143.657 46.2672Z" stroke="#686DE0" stroke-width="0.5" stroke-dasharray="3 3"/>
<path d="M103.663 28.7652C103.812 29.8007 103.912 30.852 103.963 31.9168L103.713 31.9286C103.738 32.4492 103.75 32.9731 103.75 33.5C103.75 34.0269 103.738 34.5508 103.713 35.0714L103.963 35.0832C103.912 36.148 103.812 37.1993 103.663 38.2348L103.415 38.1992C103.265 39.2444 103.066 40.2733 102.819 41.2834L103.062 41.3427C102.81 42.3747 102.51 43.3873 102.164 44.3777L101.928 44.2952C101.58 45.2889 101.186 46.2601 100.748 47.2063L100.975 47.3113C100.53 48.2728 100.04 49.2085 99.5075 50.1157L99.2919 49.9892C98.7603 50.895 98.1863 51.7721 97.5725 52.6177L97.7749 52.7645C97.1537 53.6203 96.4923 54.444 95.7933 55.2328L95.6062 55.067C94.911 55.8517 94.1783 56.6015 93.4112 57.3135L93.5812 57.4968C92.8076 58.2149 91.9991 58.8949 91.1586 59.5339L91.0073 59.3349C90.1743 59.9682 89.3098 60.5609 88.4165 61.1101L88.5474 61.323C87.6501 61.8747 86.724 62.3828 85.7719 62.8446L85.6628 62.6196C84.7239 63.075 83.7594 63.4848 82.7723 63.8464L82.8583 64.0812C81.8722 64.4424 80.8636 64.7558 79.8352 65.0187L79.7733 64.7765C78.7658 65.034 77.739 65.2427 76.6958 65.3998L76.733 65.647C75.6983 65.8028 74.6475 65.9083 73.583 65.9609L73.5707 65.7112C73.0503 65.737 72.5267 65.75 72 65.75C71.4733 65.75 70.9497 65.737 70.4293 65.7112L70.417 65.9609C69.3525 65.9083 68.3017 65.8028 67.267 65.647L67.3043 65.3998C66.261 65.2427 65.2342 65.034 64.2267 64.7765L64.1648 65.0187C63.1364 64.7558 62.1278 64.4424 61.1417 64.0812L61.2277 63.8464C60.2406 63.4848 59.2761 63.075 58.3372 62.6196L58.2281 62.8446C57.276 62.3828 56.3499 61.8747 55.4526 61.323L55.5835 61.1101C54.6902 60.5609 53.8257 59.9682 52.9927 59.3349L52.8414 59.5339C52.0009 58.8949 51.1924 58.2149 50.4188 57.4968L50.5888 57.3135C49.8217 56.6015 49.089 55.8517 48.3938 55.067L48.2067 55.2328C47.5077 54.444 46.8463 53.6203 46.2251 52.7645L46.4275 52.6177C45.8137 51.7721 45.2397 50.895 44.7081 49.9891L44.4925 50.1157C43.9601 49.2085 43.47 48.2728 43.0249 47.3113L43.2518 47.2063C42.8138 46.2601 42.4198 45.2889 42.0723 44.2952L41.8363 44.3777C41.49 43.3872 41.1897 42.3747 40.9379 41.3427L41.1808 41.2834C40.9344 40.2733 40.7348 39.2444 40.5846 38.1992L40.3371 38.2348C40.1883 37.1993 40.0876 36.148 40.0373 35.0832L40.287 35.0714C40.2624 34.5508 40.25 34.0269 40.25 33.5C40.25 32.9731 40.2624 32.4492 40.287 31.9286L40.0373 31.9168C40.0876 30.852 40.1883 29.8007 40.3371 28.7652L40.5846 28.8008C40.7348 27.7556 40.9344 26.7267 41.1808 25.7166L40.9379 25.6573C41.1897 24.6253 41.49 23.6127 41.8363 22.6223L42.0723 22.7048C42.4198 21.7111 42.8138 20.7399 43.2518 19.7937L43.0249 19.6887C43.47 18.7272 43.9601 17.7915 44.4925 16.8843L44.7081 17.0108C45.2397 16.105 45.8137 15.2279 46.4275 14.3823L46.2251 14.2355C46.8463 13.3797 47.5077 12.556 48.2067 11.7672L48.3938 11.933C49.089 11.1483 49.8217 10.3985 50.5888 9.68645L50.4188 9.50322C51.1924 8.78511 52.0009 8.10509 52.8414 7.46607L52.9927 7.66508C53.8257 7.0318 54.6902 6.43912 55.5835 5.88993L55.4526 5.67696C56.3499 5.12532 57.276 4.61719 58.2281 4.15544L58.3372 4.38039C59.2761 3.92502 60.2406 3.51515 61.2277 3.15356L61.1417 2.91882C62.1278 2.55759 63.1364 2.24417 64.1648 1.9813L64.2267 2.22351C65.2342 1.96596 66.261 1.75733 67.3042 1.60024L67.267 1.35302C68.3017 1.19723 69.3525 1.09174 70.417 1.03907L70.4293 1.28877C70.9497 1.26302 71.4733 1.25 72 1.25C72.5267 1.25 73.0503 1.26302 73.5707 1.28877L73.583 1.03907C74.6475 1.09174 75.6983 1.19723 76.733 1.35302L76.6958 1.60024C77.739 1.75732 78.7658 1.96596 79.7733 2.22351L79.8352 1.9813C80.8636 2.24417 81.8722 2.55759 82.8583 2.91882L82.7723 3.15356C83.7594 3.51515 84.7239 3.92503 85.6628 4.38039L85.7719 4.15545C86.724 4.61719 87.6501 5.12532 88.5474 5.67696L88.4165 5.88993C89.3098 6.43913 90.1743 7.0318 91.0073 7.66508L91.1586 7.46607C91.9991 8.10509 92.8076 8.78512 93.5812 9.50322L93.4112 9.68645C94.1783 10.3985 94.911 11.1483 95.6062 11.933L95.7933 11.7672C96.4923 12.556 97.1537 13.3797 97.7749 14.2355L97.5725 14.3823C98.1863 15.2279 98.7603 16.105 99.2919 17.0109L99.5075 16.8843C100.04 17.7915 100.53 18.7272 100.975 19.6887L100.748 19.7937C101.186 20.7399 101.58 21.7111 101.928 22.7048L102.164 22.6223C102.51 23.6128 102.81 24.6253 103.062 25.6573L102.819 25.7166C103.066 26.7267 103.265 27.7556 103.415 28.8008L103.663 28.7652Z" stroke="#686DE0" stroke-width="0.5" stroke-dasharray="3 3"/>
<ellipse cx="118" cy="51.5" rx="25" ry="25.5" fill="#686DE0"/>
<g filter="url(#filter0_d_1_36)">
<ellipse cx="72" cy="35.5" rx="32" ry="32.5" fill="url(#paint0_linear_1_36)"/>
</g>
<path d="M63.73 35.33C63.73 35.7567 63.6567 36.1467 63.51 36.5C63.37 36.8467 63.1667 37.1467 62.9 37.4C62.6333 37.6467 62.31 37.84 61.93 37.98C61.5567 38.12 61.14 38.19 60.68 38.19C60.2133 38.19 59.7933 38.12 59.42 37.98C59.0467 37.84 58.73 37.6467 58.47 37.4C58.21 37.1467 58.01 36.8467 57.87 36.5C57.73 36.1467 57.66 35.7567 57.66 35.33V30.92H59.36V35.19C59.36 35.3833 59.3833 35.5667 59.43 35.74C59.4833 35.9133 59.56 36.07 59.66 36.21C59.7667 36.3433 59.9033 36.45 60.07 36.53C60.2433 36.61 60.45 36.65 60.69 36.65C60.93 36.65 61.1333 36.61 61.3 36.53C61.4733 36.45 61.6133 36.3433 61.72 36.21C61.8267 36.07 61.9033 35.9133 61.95 35.74C61.9967 35.5667 62.02 35.3833 62.02 35.19V30.92H63.73V35.33ZM69.3828 38L67.8328 35.5L66.3428 38H64.3028L66.7828 34.26L64.5028 30.92H66.5628L67.8828 33.12L69.1828 30.92H71.1728L68.9328 34.26L71.4928 38H69.3828ZM72.4741 38.52L71.3441 38.15L74.4341 30.38L75.5641 30.77L72.4741 38.52ZM82.2945 35.33C82.2945 35.7567 82.2211 36.1467 82.0745 36.5C81.9345 36.8467 81.7311 37.1467 81.4645 37.4C81.1978 37.6467 80.8745 37.84 80.4945 37.98C80.1211 38.12 79.7045 38.19 79.2445 38.19C78.7778 38.19 78.3578 38.12 77.9845 37.98C77.6111 37.84 77.2945 37.6467 77.0345 37.4C76.7745 37.1467 76.5745 36.8467 76.4345 36.5C76.2945 36.1467 76.2245 35.7567 76.2245 35.33V30.92H77.9245V35.19C77.9245 35.3833 77.9478 35.5667 77.9945 35.74C78.0478 35.9133 78.1245 36.07 78.2245 36.21C78.3311 36.3433 78.4678 36.45 78.6345 36.53C78.8078 36.61 79.0145 36.65 79.2545 36.65C79.4945 36.65 79.6978 36.61 79.8645 36.53C80.0378 36.45 80.1778 36.3433 80.2845 36.21C80.3911 36.07 80.4678 35.9133 80.5145 35.74C80.5611 35.5667 80.5845 35.3833 80.5845 35.19V30.92H82.2945V35.33ZM83.6773 38V30.92H85.3973V38H83.6773Z" fill="white"/>
<path d="M104.452 49.628V50.504H106.096V51.35H104.452V53H103.438V48.752H106.234V49.628H104.452ZM108.527 50.816C108.483 50.804 108.439 50.796 108.395 50.792C108.355 50.788 108.315 50.786 108.275 50.786C108.143 50.786 108.031 50.81 107.939 50.858C107.851 50.906 107.779 50.964 107.723 51.032C107.671 51.1 107.633 51.174 107.609 51.254C107.585 51.334 107.573 51.404 107.573 51.464V53H106.589V50.012H107.537V50.444H107.549C107.625 50.292 107.733 50.168 107.873 50.072C108.013 49.976 108.175 49.928 108.359 49.928C108.399 49.928 108.437 49.93 108.473 49.934C108.513 49.938 108.545 49.944 108.569 49.952L108.527 50.816ZM112.031 51.494C112.031 51.738 111.987 51.96 111.899 52.16C111.811 52.356 111.691 52.524 111.539 52.664C111.387 52.8 111.211 52.906 111.011 52.982C110.811 53.058 110.597 53.096 110.369 53.096C110.145 53.096 109.931 53.058 109.727 52.982C109.527 52.906 109.351 52.8 109.199 52.664C109.051 52.524 108.933 52.356 108.845 52.16C108.757 51.96 108.713 51.738 108.713 51.494C108.713 51.25 108.757 51.03 108.845 50.834C108.933 50.638 109.051 50.472 109.199 50.336C109.351 50.2 109.527 50.096 109.727 50.024C109.931 49.952 110.145 49.916 110.369 49.916C110.597 49.916 110.811 49.952 111.011 50.024C111.211 50.096 111.387 50.2 111.539 50.336C111.691 50.472 111.811 50.638 111.899 50.834C111.987 51.03 112.031 51.25 112.031 51.494ZM111.083 51.494C111.083 51.398 111.067 51.304 111.035 51.212C111.003 51.12 110.957 51.04 110.897 50.972C110.837 50.9 110.763 50.842 110.675 50.798C110.587 50.754 110.485 50.732 110.369 50.732C110.253 50.732 110.151 50.754 110.063 50.798C109.975 50.842 109.901 50.9 109.841 50.972C109.785 51.04 109.741 51.12 109.709 51.212C109.681 51.304 109.667 51.398 109.667 51.494C109.667 51.59 109.681 51.684 109.709 51.776C109.741 51.868 109.787 51.952 109.847 52.028C109.907 52.1 109.981 52.158 110.069 52.202C110.157 52.246 110.259 52.268 110.375 52.268C110.491 52.268 110.593 52.246 110.681 52.202C110.769 52.158 110.843 52.1 110.903 52.028C110.963 51.952 111.007 51.868 111.035 51.776C111.067 51.684 111.083 51.59 111.083 51.494ZM114.616 53V51.368C114.616 51.284 114.608 51.204 114.592 51.128C114.58 51.052 114.558 50.986 114.526 50.93C114.494 50.87 114.448 50.824 114.388 50.792C114.332 50.756 114.26 50.738 114.172 50.738C114.084 50.738 114.006 50.756 113.938 50.792C113.874 50.824 113.82 50.87 113.776 50.93C113.732 50.99 113.698 51.06 113.674 51.14C113.654 51.216 113.644 51.296 113.644 51.38V53H112.654V50.012H113.608V50.426H113.62C113.656 50.362 113.702 50.3 113.758 50.24C113.818 50.176 113.886 50.122 113.962 50.078C114.042 50.034 114.128 49.998 114.22 49.97C114.312 49.942 114.41 49.928 114.514 49.928C114.714 49.928 114.884 49.964 115.024 50.036C115.164 50.108 115.276 50.202 115.36 50.318C115.448 50.43 115.51 50.56 115.546 50.708C115.586 50.856 115.606 51.004 115.606 51.152V53H114.616ZM117.419 50.75V51.89C117.419 52.03 117.445 52.136 117.497 52.208C117.553 52.276 117.651 52.31 117.791 52.31C117.839 52.31 117.889 52.306 117.941 52.298C117.997 52.29 118.043 52.278 118.079 52.262L118.091 52.982C118.023 53.006 117.937 53.026 117.833 53.042C117.729 53.062 117.625 53.072 117.521 53.072C117.321 53.072 117.153 53.048 117.017 53C116.881 52.948 116.771 52.876 116.687 52.784C116.607 52.688 116.549 52.576 116.513 52.448C116.477 52.316 116.459 52.17 116.459 52.01V50.75H115.979V50.012H116.453V49.226H117.419V50.012H118.121V50.75H117.419ZM118.415 51.818V51.038H119.939V51.818H118.415ZM122.598 51.164C122.598 51.008 122.548 50.874 122.448 50.762C122.352 50.65 122.206 50.594 122.01 50.594C121.914 50.594 121.826 50.61 121.746 50.642C121.666 50.67 121.596 50.71 121.536 50.762C121.476 50.814 121.428 50.876 121.392 50.948C121.356 51.016 121.336 51.088 121.332 51.164H122.598ZM123.504 51.542C123.504 51.582 123.504 51.622 123.504 51.662C123.504 51.702 123.502 51.74 123.498 51.776H121.332C121.34 51.86 121.364 51.936 121.404 52.004C121.448 52.072 121.502 52.132 121.566 52.184C121.634 52.232 121.708 52.27 121.788 52.298C121.872 52.326 121.958 52.34 122.046 52.34C122.202 52.34 122.334 52.312 122.442 52.256C122.55 52.196 122.638 52.12 122.706 52.028L123.39 52.46C123.25 52.664 123.064 52.822 122.832 52.934C122.604 53.042 122.338 53.096 122.034 53.096C121.81 53.096 121.598 53.062 121.398 52.994C121.198 52.922 121.022 52.82 120.87 52.688C120.722 52.552 120.604 52.386 120.516 52.19C120.432 51.994 120.39 51.77 120.39 51.518C120.39 51.274 120.432 51.054 120.516 50.858C120.6 50.658 120.714 50.49 120.858 50.354C121.002 50.214 121.172 50.106 121.368 50.03C121.564 49.954 121.776 49.916 122.004 49.916C122.224 49.916 122.426 49.954 122.61 50.03C122.794 50.102 122.952 50.208 123.084 50.348C123.216 50.488 123.318 50.658 123.39 50.858C123.466 51.058 123.504 51.286 123.504 51.542ZM126.076 53V51.368C126.076 51.284 126.068 51.204 126.052 51.128C126.04 51.052 126.018 50.986 125.986 50.93C125.954 50.87 125.908 50.824 125.848 50.792C125.792 50.756 125.72 50.738 125.632 50.738C125.544 50.738 125.466 50.756 125.398 50.792C125.334 50.824 125.28 50.87 125.236 50.93C125.192 50.99 125.158 51.06 125.134 51.14C125.114 51.216 125.104 51.296 125.104 51.38V53H124.114V50.012H125.068V50.426H125.08C125.116 50.362 125.162 50.3 125.218 50.24C125.278 50.176 125.346 50.122 125.422 50.078C125.502 50.034 125.588 49.998 125.68 49.97C125.772 49.942 125.87 49.928 125.974 49.928C126.174 49.928 126.344 49.964 126.484 50.036C126.624 50.108 126.736 50.202 126.82 50.318C126.908 50.43 126.97 50.56 127.006 50.708C127.046 50.856 127.066 51.004 127.066 51.152V53H126.076ZM130.074 53V52.61H130.062C129.966 52.762 129.828 52.88 129.648 52.964C129.472 53.044 129.284 53.084 129.084 53.084C128.86 53.084 128.66 53.04 128.484 52.952C128.308 52.864 128.158 52.748 128.034 52.604C127.914 52.456 127.822 52.286 127.758 52.094C127.694 51.902 127.662 51.702 127.662 51.494C127.662 51.286 127.694 51.088 127.758 50.9C127.826 50.708 127.92 50.54 128.04 50.396C128.164 50.252 128.312 50.138 128.484 50.054C128.66 49.97 128.856 49.928 129.072 49.928C129.292 49.928 129.478 49.97 129.63 50.054C129.782 50.138 129.9 50.23 129.984 50.33H129.996V48.464H130.98V53H130.074ZM130.038 51.5C130.038 51.404 130.02 51.31 129.984 51.218C129.952 51.126 129.904 51.044 129.84 50.972C129.78 50.9 129.706 50.842 129.618 50.798C129.53 50.754 129.43 50.732 129.318 50.732C129.202 50.732 129.1 50.754 129.012 50.798C128.924 50.842 128.85 50.9 128.79 50.972C128.73 51.04 128.684 51.12 128.652 51.212C128.624 51.304 128.61 51.398 128.61 51.494C128.61 51.59 128.624 51.686 128.652 51.782C128.684 51.874 128.73 51.956 128.79 52.028C128.85 52.1 128.924 52.158 129.012 52.202C129.1 52.246 129.202 52.268 129.318 52.268C129.43 52.268 129.53 52.246 129.618 52.202C129.706 52.158 129.78 52.1 129.84 52.028C129.904 51.956 129.952 51.874 129.984 51.782C130.02 51.69 130.038 51.596 130.038 51.5Z" fill="white"/>
<path d="M14.712 53L13.794 51.314H13.446V53H12.438V48.752H14.058C14.262 48.752 14.46 48.774 14.652 48.818C14.848 48.858 15.022 48.928 15.174 49.028C15.33 49.128 15.454 49.26 15.546 49.424C15.638 49.588 15.684 49.792 15.684 50.036C15.684 50.324 15.606 50.566 15.45 50.762C15.294 50.958 15.078 51.098 14.802 51.182L15.912 53H14.712ZM14.67 50.054C14.67 49.954 14.648 49.874 14.604 49.814C14.564 49.75 14.51 49.702 14.442 49.67C14.378 49.634 14.304 49.61 14.22 49.598C14.14 49.586 14.062 49.58 13.986 49.58H13.44V50.57H13.926C14.01 50.57 14.096 50.564 14.184 50.552C14.272 50.536 14.352 50.51 14.424 50.474C14.496 50.438 14.554 50.386 14.598 50.318C14.646 50.25 14.67 50.162 14.67 50.054ZM18.3502 51.164C18.3502 51.008 18.3002 50.874 18.2002 50.762C18.1042 50.65 17.9582 50.594 17.7622 50.594C17.6662 50.594 17.5782 50.61 17.4982 50.642C17.4182 50.67 17.3482 50.71 17.2882 50.762C17.2282 50.814 17.1802 50.876 17.1442 50.948C17.1082 51.016 17.0882 51.088 17.0842 51.164H18.3502ZM19.2562 51.542C19.2562 51.582 19.2562 51.622 19.2562 51.662C19.2562 51.702 19.2542 51.74 19.2502 51.776H17.0842C17.0922 51.86 17.1162 51.936 17.1562 52.004C17.2002 52.072 17.2542 52.132 17.3182 52.184C17.3862 52.232 17.4602 52.27 17.5402 52.298C17.6242 52.326 17.7102 52.34 17.7982 52.34C17.9542 52.34 18.0862 52.312 18.1942 52.256C18.3022 52.196 18.3902 52.12 18.4582 52.028L19.1422 52.46C19.0022 52.664 18.8162 52.822 18.5842 52.934C18.3562 53.042 18.0902 53.096 17.7862 53.096C17.5622 53.096 17.3502 53.062 17.1502 52.994C16.9502 52.922 16.7742 52.82 16.6222 52.688C16.4742 52.552 16.3562 52.386 16.2682 52.19C16.1842 51.994 16.1422 51.77 16.1422 51.518C16.1422 51.274 16.1842 51.054 16.2682 50.858C16.3522 50.658 16.4662 50.49 16.6102 50.354C16.7542 50.214 16.9242 50.106 17.1202 50.03C17.3162 49.954 17.5282 49.916 17.7562 49.916C17.9762 49.916 18.1782 49.954 18.3622 50.03C18.5462 50.102 18.7042 50.208 18.8362 50.348C18.9682 50.488 19.0702 50.658 19.1422 50.858C19.2182 51.058 19.2562 51.286 19.2562 51.542ZM21.6244 50.894C21.5444 50.818 21.4504 50.754 21.3424 50.702C21.2344 50.65 21.1204 50.624 21.0004 50.624C20.9084 50.624 20.8224 50.642 20.7424 50.678C20.6664 50.714 20.6284 50.776 20.6284 50.864C20.6284 50.948 20.6704 51.008 20.7544 51.044C20.8424 51.08 20.9824 51.12 21.1744 51.164C21.2864 51.188 21.3984 51.222 21.5104 51.266C21.6264 51.31 21.7304 51.368 21.8224 51.44C21.9144 51.512 21.9884 51.6 22.0444 51.704C22.1004 51.808 22.1284 51.932 22.1284 52.076C22.1284 52.264 22.0904 52.424 22.0144 52.556C21.9384 52.684 21.8384 52.788 21.7144 52.868C21.5944 52.948 21.4584 53.006 21.3064 53.042C21.1544 53.078 21.0024 53.096 20.8504 53.096C20.6064 53.096 20.3664 53.058 20.1304 52.982C19.8984 52.902 19.7044 52.786 19.5484 52.634L20.1004 52.052C20.1884 52.148 20.2964 52.228 20.4244 52.292C20.5524 52.356 20.6884 52.388 20.8324 52.388C20.9124 52.388 20.9904 52.37 21.0664 52.334C21.1464 52.294 21.1864 52.226 21.1864 52.13C21.1864 52.038 21.1384 51.97 21.0424 51.926C20.9464 51.882 20.7964 51.836 20.5924 51.788C20.4884 51.764 20.3844 51.732 20.2804 51.692C20.1764 51.652 20.0824 51.598 19.9984 51.53C19.9184 51.462 19.8524 51.378 19.8004 51.278C19.7484 51.178 19.7224 51.058 19.7224 50.918C19.7224 50.738 19.7604 50.586 19.8364 50.462C19.9124 50.334 20.0104 50.23 20.1304 50.15C20.2504 50.07 20.3824 50.012 20.5264 49.976C20.6744 49.936 20.8204 49.916 20.9644 49.916C21.1884 49.916 21.4064 49.952 21.6184 50.024C21.8344 50.092 22.0164 50.196 22.1644 50.336L21.6244 50.894ZM24.7545 51.164C24.7545 51.008 24.7045 50.874 24.6045 50.762C24.5085 50.65 24.3625 50.594 24.1665 50.594C24.0705 50.594 23.9825 50.61 23.9025 50.642C23.8225 50.67 23.7525 50.71 23.6925 50.762C23.6325 50.814 23.5845 50.876 23.5485 50.948C23.5125 51.016 23.4925 51.088 23.4885 51.164H24.7545ZM25.6605 51.542C25.6605 51.582 25.6605 51.622 25.6605 51.662C25.6605 51.702 25.6585 51.74 25.6545 51.776H23.4885C23.4965 51.86 23.5205 51.936 23.5605 52.004C23.6045 52.072 23.6585 52.132 23.7225 52.184C23.7905 52.232 23.8645 52.27 23.9445 52.298C24.0285 52.326 24.1145 52.34 24.2025 52.34C24.3585 52.34 24.4905 52.312 24.5985 52.256C24.7065 52.196 24.7945 52.12 24.8625 52.028L25.5465 52.46C25.4065 52.664 25.2205 52.822 24.9885 52.934C24.7605 53.042 24.4945 53.096 24.1905 53.096C23.9665 53.096 23.7545 53.062 23.5545 52.994C23.3545 52.922 23.1785 52.82 23.0265 52.688C22.8785 52.552 22.7605 52.386 22.6725 52.19C22.5885 51.994 22.5465 51.77 22.5465 51.518C22.5465 51.274 22.5885 51.054 22.6725 50.858C22.7565 50.658 22.8705 50.49 23.0145 50.354C23.1585 50.214 23.3285 50.106 23.5245 50.03C23.7205 49.954 23.9325 49.916 24.1605 49.916C24.3805 49.916 24.5825 49.954 24.7665 50.03C24.9505 50.102 25.1085 50.208 25.2405 50.348C25.3725 50.488 25.4745 50.658 25.5465 50.858C25.6225 51.058 25.6605 51.286 25.6605 51.542ZM27.9996 51.698H27.8736C27.7656 51.698 27.6556 51.704 27.5436 51.716C27.4356 51.724 27.3376 51.742 27.2496 51.77C27.1656 51.798 27.0956 51.84 27.0396 51.896C26.9836 51.948 26.9556 52.018 26.9556 52.106C26.9556 52.162 26.9676 52.21 26.9916 52.25C27.0196 52.29 27.0536 52.322 27.0936 52.346C27.1336 52.37 27.1796 52.388 27.2316 52.4C27.2836 52.408 27.3336 52.412 27.3816 52.412C27.5816 52.412 27.7336 52.358 27.8376 52.25C27.9456 52.138 27.9996 51.988 27.9996 51.8V51.698ZM26.1936 50.42C26.3696 50.252 26.5736 50.126 26.8056 50.042C27.0416 49.958 27.2816 49.916 27.5256 49.916C27.7776 49.916 27.9896 49.948 28.1616 50.012C28.3376 50.072 28.4796 50.168 28.5876 50.3C28.6956 50.428 28.7736 50.592 28.8216 50.792C28.8736 50.988 28.8996 51.222 28.8996 51.494V53H27.9996V52.682H27.9816C27.9056 52.806 27.7896 52.902 27.6336 52.97C27.4816 53.038 27.3156 53.072 27.1356 53.072C27.0156 53.072 26.8916 53.056 26.7636 53.024C26.6356 52.992 26.5176 52.94 26.4096 52.868C26.3056 52.796 26.2196 52.7 26.1516 52.58C26.0836 52.46 26.0496 52.312 26.0496 52.136C26.0496 51.92 26.1076 51.746 26.2236 51.614C26.3436 51.482 26.4956 51.38 26.6796 51.308C26.8676 51.236 27.0756 51.188 27.3036 51.164C27.5316 51.14 27.7536 51.128 27.9696 51.128V51.08C27.9696 50.932 27.9176 50.824 27.8136 50.756C27.7096 50.684 27.5816 50.648 27.4296 50.648C27.2896 50.648 27.1536 50.678 27.0216 50.738C26.8936 50.798 26.7836 50.87 26.6916 50.954L26.1936 50.42ZM31.572 50.816C31.528 50.804 31.484 50.796 31.44 50.792C31.4 50.788 31.36 50.786 31.32 50.786C31.188 50.786 31.076 50.81 30.984 50.858C30.896 50.906 30.824 50.964 30.768 51.032C30.716 51.1 30.678 51.174 30.654 51.254C30.63 51.334 30.618 51.404 30.618 51.464V53H29.634V50.012H30.582V50.444H30.594C30.67 50.292 30.778 50.168 30.918 50.072C31.058 49.976 31.22 49.928 31.404 49.928C31.444 49.928 31.482 49.93 31.518 49.934C31.558 49.938 31.59 49.944 31.614 49.952L31.572 50.816ZM33.9654 50.978C33.9094 50.906 33.8334 50.848 33.7374 50.804C33.6414 50.76 33.5434 50.738 33.4434 50.738C33.3394 50.738 33.2454 50.76 33.1614 50.804C33.0774 50.844 33.0054 50.9 32.9454 50.972C32.8854 51.04 32.8374 51.12 32.8014 51.212C32.7694 51.304 32.7534 51.402 32.7534 51.506C32.7534 51.61 32.7694 51.708 32.8014 51.8C32.8334 51.892 32.8794 51.974 32.9394 52.046C33.0034 52.114 33.0774 52.168 33.1614 52.208C33.2494 52.248 33.3474 52.268 33.4554 52.268C33.5554 52.268 33.6534 52.25 33.7494 52.214C33.8494 52.174 33.9294 52.118 33.9894 52.046L34.5354 52.712C34.4114 52.832 34.2514 52.926 34.0554 52.994C33.8594 53.062 33.6514 53.096 33.4314 53.096C33.1954 53.096 32.9754 53.06 32.7714 52.988C32.5674 52.916 32.3894 52.812 32.2374 52.676C32.0894 52.536 31.9714 52.368 31.8834 52.172C31.7994 51.976 31.7574 51.754 31.7574 51.506C31.7574 51.262 31.7994 51.042 31.8834 50.846C31.9714 50.65 32.0894 50.484 32.2374 50.348C32.3894 50.208 32.5674 50.102 32.7714 50.03C32.9754 49.954 33.1934 49.916 33.4254 49.916C33.5334 49.916 33.6394 49.926 33.7434 49.946C33.8514 49.966 33.9534 49.994 34.0494 50.03C34.1494 50.062 34.2394 50.104 34.3194 50.156C34.4034 50.204 34.4754 50.258 34.5354 50.318L33.9654 50.978ZM36.893 53V51.38C36.893 51.296 36.887 51.216 36.875 51.14C36.863 51.064 36.839 50.998 36.803 50.942C36.771 50.882 36.727 50.836 36.671 50.804C36.615 50.768 36.543 50.75 36.455 50.75C36.283 50.75 36.151 50.812 36.059 50.936C35.967 51.056 35.921 51.206 35.921 51.386V53H34.937V48.464H35.921V50.39H35.933C36.001 50.27 36.109 50.164 36.257 50.072C36.405 49.976 36.583 49.928 36.791 49.928C36.995 49.928 37.165 49.964 37.301 50.036C37.441 50.108 37.553 50.202 37.637 50.318C37.725 50.43 37.787 50.56 37.823 50.708C37.863 50.856 37.883 51.004 37.883 51.152V53H36.893Z" fill="white"/>
<defs>
<filter id="filter0_d_1_36" x="32" y="0" width="80" height="81" filterUnits="userSpaceOnUse" color-interpolation-filters="sRGB">
<feFlood flood-opacity="0" result="BackgroundImageFix"/>
<feColorMatrix in="SourceAlpha" type="matrix" values="0 0 0 0 0 0 0 0 0 0 0 0 0 0 0 0 0 0 127 0" result="hardAlpha"/>
<feOffset dy="5"/>
<feGaussianBlur stdDeviation="4"/>
<feComposite in2="hardAlpha" operator="out"/>
<feColorMatrix type="matrix" values="0 0 0 0 0.283333 0 0 0 0 0.283333 0 0 0 0 0.283333 0 0 0 0.2 0"/>
<feBlend mode="normal" in2="BackgroundImageFix" result="effect1_dropShadow_1_36"/>
<feBlend mode="normal" in="SourceGraphic" in2="effect1_dropShadow_1_36" result="shape"/>
</filter>
<linearGradient id="paint0_linear_1_36" x1="96.2759" y1="15.3276" x2="50.3687" y2="58.3236" gradientUnits="userSpaceOnUse">
<stop stop-color="#4834D4"/>
<stop offset="1" stop-color="#686DE0"/>
</linearGradient>
</defs>
</svg>
