<svg width="69" height="79" viewBox="0 0 69 79" fill="none" xmlns="http://www.w3.org/2000/svg">
<g filter="url(#filter0_d_19_141)">
<path d="M15.0632 63.4268L26.9536 40.777L32.7529 44.2055L21.1178 66.3812L17.8178 68.1365L15.6147 66.8681L15.0632 63.4268Z" fill="#C4C4C4"/>
<path d="M39.9018 11.0513L26.7713 30.8927L41.47 38.8075L50.8073 16.9236L39.9018 11.0513Z" fill="#1D1C1C"/>
<path d="M42.0535 51.3543L15.9752 37.312C18.1928 30.9219 23.7805 30.1997 26.2971 30.6374L41.47 38.8075C46.3428 43.3886 43.8893 49.0808 42.0535 51.3543Z" fill="#227AFF"/>
<path d="M56.7159 12.7657L40.1206 3.82965C37.3195 7.21436 38.5644 10.1274 39.537 11.1608L50.8072 16.9236C54.5421 17.7114 56.3025 14.4799 56.7159 12.7657Z" fill="#227AFF"/>
</g>
<defs>
<filter id="filter0_d_19_141" x="11.0632" y="3.82965" width="49.6527" height="74.3069" filterUnits="userSpaceOnUse" color-interpolation-filters="sRGB">
<feFlood flood-opacity="0" result="BackgroundImageFix"/>
<feColorMatrix in="SourceAlpha" type="matrix" values="0 0 0 0 0 0 0 0 0 0 0 0 0 0 0 0 0 0 127 0" result="hardAlpha"/>
<feOffset dy="6"/>
<feGaussianBlur stdDeviation="2"/>
<feComposite in2="hardAlpha" operator="out"/>
<feColorMatrix type="matrix" values="0 0 0 0 0 0 0 0 0 0 0 0 0 0 0 0 0 0 0.25 0"/>
<feBlend mode="normal" in2="BackgroundImageFix" result="effect1_dropShadow_19_141"/>
<feBlend mode="normal" in="SourceGraphic" in2="effect1_dropShadow_19_141" result="shape"/>
</filter>
</defs>
</svg>
