<?xml version="1.0" encoding="UTF-8"?>
<svg width="56px" height="56px" viewBox="0 0 56 56" version="1.1" xmlns="http://www.w3.org/2000/svg" xmlns:xlink="http://www.w3.org/1999/xlink">
    <title>Group 16</title>
    <g id="Portfolio" stroke="none" stroke-width="1" fill="none" fill-rule="evenodd">
        <g id="Group-16">
            <circle id="Oval" fill="#4832ED" cx="28" cy="28" r="28"></circle>
            <g id="Group-15" transform="translate(15.000000, 15.000000)" fill="#D8D8D8">
                <g id="Group-14" transform="translate(12.000000, 0.000000)">
                    <rect id="Rectangle" x="0" y="0" width="3" height="3"></rect>
                    <rect id="Rectangle-Copy-19" x="0" y="3" width="3" height="3"></rect>
                    <rect id="Rectangle-Copy-20" x="0" y="6" width="3" height="3"></rect>
                    <rect id="Rectangle-Copy-21" x="0" y="9" width="3" height="3"></rect>
                    <rect id="Rectangle-Copy-22" x="0" y="12" width="3" height="3"></rect>
                    <rect id="Rectangle-Copy-23" x="0" y="15" width="3" height="3"></rect>
                    <rect id="Rectangle-Copy-24" x="0" y="18" width="3" height="3"></rect>
                    <rect id="Rectangle-Copy-26" x="0" y="21" width="3" height="3"></rect>
                    <rect id="Rectangle-Copy-27" x="0" y="24" width="3" height="3"></rect>
                </g>
                <g id="Group-14" transform="translate(13.500000, 13.500000) rotate(-90.000000) translate(-13.500000, -13.500000) translate(12.000000, 0.000000)">
                    <rect id="Rectangle" x="0" y="0" width="3" height="3"></rect>
                    <rect id="Rectangle-Copy-19" x="0" y="3" width="3" height="3"></rect>
                    <rect id="Rectangle-Copy-20" x="0" y="6" width="3" height="3"></rect>
                    <rect id="Rectangle-Copy-21" x="0" y="9" width="3" height="3"></rect>
                    <rect id="Rectangle-Copy-22" x="0" y="12" width="3" height="3"></rect>
                    <rect id="Rectangle-Copy-23" x="0" y="15" width="3" height="3"></rect>
                    <rect id="Rectangle-Copy-24" x="0" y="18" width="3" height="3"></rect>
                    <rect id="Rectangle-Copy-26" x="0" y="21" width="3" height="3"></rect>
                    <rect id="Rectangle-Copy-27" x="0" y="24" width="3" height="3"></rect>
                </g>
            </g>
        </g>
    </g>
</svg>