<svg width="12" height="12" viewBox="0 0 12 12" fill="none" xmlns="http://www.w3.org/2000/svg">
<circle cx="6" cy="6" r="6" fill="#5440E0"/>
<path d="M3.02933 7.66667V6.92001L4.50133 5.58667C4.59378 5.49778 4.66844 5.40712 4.72533 5.31467C4.78222 5.22223 4.81067 5.11912 4.81067 5.00534C4.81067 4.87023 4.768 4.76178 4.68267 4.68C4.59733 4.59467 4.48356 4.552 4.34133 4.552C4.192 4.552 4.06933 4.60534 3.97333 4.712C3.88089 4.81512 3.82578 4.952 3.808 5.12267L2.94933 5.00534C2.97067 4.81334 3.02222 4.64267 3.104 4.49334C3.18933 4.344 3.296 4.21778 3.424 4.11467C3.552 4.008 3.69778 3.928 3.86133 3.87467C4.02844 3.81778 4.20444 3.78934 4.38933 3.78934C4.56356 3.78934 4.73244 3.81245 4.896 3.85867C5.05956 3.90489 5.20533 3.976 5.33333 4.072C5.46133 4.168 5.56267 4.28889 5.63733 4.43467C5.71556 4.58045 5.75467 4.75112 5.75467 4.94667C5.75467 5.08178 5.73689 5.20445 5.70133 5.31467C5.66578 5.42134 5.616 5.52089 5.552 5.61334C5.49156 5.70578 5.42044 5.79289 5.33867 5.87467C5.26044 5.95289 5.17867 6.03112 5.09333 6.10934L4.21867 6.888H5.76V7.66667H3.02933ZM6.45058 7.66667V6.92001L7.92258 5.58667C8.01503 5.49778 8.08969 5.40712 8.14658 5.31467C8.20347 5.22223 8.23192 5.11912 8.23192 5.00534C8.23192 4.87023 8.18925 4.76178 8.10392 4.68C8.01858 4.59467 7.90481 4.552 7.76258 4.552C7.61325 4.552 7.49058 4.60534 7.39458 4.712C7.30214 4.81512 7.24703 4.952 7.22925 5.12267L6.37058 5.00534C6.39192 4.81334 6.44347 4.64267 6.52525 4.49334C6.61058 4.344 6.71725 4.21778 6.84525 4.11467C6.97325 4.008 7.11903 3.928 7.28258 3.87467C7.44969 3.81778 7.62569 3.78934 7.81058 3.78934C7.98481 3.78934 8.15369 3.81245 8.31725 3.85867C8.48081 3.90489 8.62658 3.976 8.75458 4.072C8.88258 4.168 8.98392 4.28889 9.05858 4.43467C9.13681 4.58045 9.17592 4.75112 9.17592 4.94667C9.17592 5.08178 9.15814 5.20445 9.12258 5.31467C9.08703 5.42134 9.03725 5.52089 8.97325 5.61334C8.91281 5.70578 8.84169 5.79289 8.75992 5.87467C8.68169 5.95289 8.59992 6.03112 8.51458 6.10934L7.63992 6.888H9.18125V7.66667H6.45058Z" fill="white"/>
</svg>
